<?xml version="1.0" encoding="utf-8"?>
<!-- Generator: Adobe Illustrator 16.0.4, SVG Export Plug-In . SVG Version: 6.00 Build 0)  -->
<!DOCTYPE svg PUBLIC "-//W3C//DTD SVG 1.1//EN" "http://www.w3.org/Graphics/SVG/1.1/DTD/svg11.dtd">
<svg version="1.1"
	 id="svg2" xmlns:dc="http://purl.org/dc/elements/1.1/" xmlns:svg="http://www.w3.org/2000/svg" xmlns:rdf="http://www.w3.org/1999/02/22-rdf-syntax-ns#" xmlns:cc="http://creativecommons.org/ns#"
	 xmlns="http://www.w3.org/2000/svg" xmlns:xlink="http://www.w3.org/1999/xlink" x="0px" y="0px" width="144px" height="144px"
	 viewBox="4398.92 129.945 144 144" enable-background="new 4398.92 129.945 144 144" xml:space="preserve">
<g>
	<path d="M4472.949,266.685c-11.625,0-23.117-2.746-33.233-7.939c-12.907-6.631-23.474-17.217-29.755-29.805l-0.057-0.115
		l-0.032-0.125c-2.318-9.127-3-18.574-2.026-28.084c0.974-9.507,3.559-18.654,7.684-27.183c2.183-4.518,4.726-8.706,7.554-12.448
		c3.656-4.842,7.783-8.926,12.263-12.138c0.912-0.653,1.851-1.281,2.761-1.888c0.674-0.451,1.372-0.917,2.045-1.383
		c0.674-0.471,1.357-0.964,2.017-1.442c1.062-0.77,2.162-1.565,3.294-2.305c2.436-1.592,4.706-2.705,6.935-3.403
		c2.565-0.803,5.485-1.191,9.196-1.22c1.958-0.015,3.94,0.065,5.889,0.237l0.013,0c1.723,0.169,3.348,0.317,4.916,0.461
		c12.379,1.128,20.561,1.875,33.674,8.728c1.451,0.582,2.617,1.695,3.648,2.679c0.086,0.081,0.172,0.162,0.256,0.242
		c0.873,0.828,2.244,2.367,2.633,3.001c0.768,1.106,1.531,2.202,2.271,3.262c6.42,9.195,11.967,17.137,15.891,26.875
		c1.777,4.42,2.918,9.265,3.389,14.4c0.428,4.68,0.307,9.642-0.365,14.747c-0.691,5.258-1.912,10.357-3.629,15.154
		c-1.805,5.045-4.166,9.77-7.016,14.041c-2.979,4.465-6.533,8.482-10.561,11.939c-4.182,3.59-8.777,6.492-13.662,8.623
		c-5.025,2.191-10.643,3.703-16.699,4.49C4479.191,266.484,4476.064,266.685,4472.949,266.685z M4412.192,227.974
		c6.058,12.08,16.222,22.238,28.632,28.611c9.775,5.021,20.885,7.674,32.125,7.674c3.012,0,6.032-0.195,8.983-0.578
		c5.827-0.758,11.222-2.205,16.038-4.307c9.135-3.986,17.365-10.98,23.178-19.689c5.34-8.006,8.887-17.744,10.254-28.16
		c1.367-10.407,0.402-19.802-2.867-27.926c-3.82-9.481-9.293-17.319-15.627-26.392c-0.752-1.072-1.529-2.183-2.305-3.303
		l-0.041-0.062l-0.027-0.048c-0.18-0.283-1.283-1.597-2.213-2.478c-0.086-0.082-0.174-0.164-0.26-0.248
		c-0.93-0.885-1.887-1.799-2.922-2.2l-0.062-0.025l-0.059-0.031c-12.721-6.658-20.289-7.347-32.826-8.492
		c-1.573-0.143-3.199-0.292-4.929-0.46c-1.872-0.166-3.77-0.244-5.65-0.229c-3.463,0.028-6.163,0.381-8.492,1.11
		c-2.016,0.63-4.086,1.651-6.332,3.119c-1.084,0.708-2.16,1.486-3.199,2.24c-0.669,0.484-1.359,0.985-2.056,1.468
		c-0.691,0.481-1.397,0.953-2.082,1.41c-0.894,0.597-1.817,1.213-2.692,1.842c-4.283,3.07-8.232,6.982-11.744,11.629
		c-2.731,3.615-5.188,7.667-7.305,12.042C4409.652,191.155,4407.693,210.146,4412.192,227.974z"/>
	<path fill="#F8485E" d="M4526.85,192.015c-2.463-4.819-3.809-8.827-5.111-12.703c-1.314-3.908-2.555-7.6-4.773-11.347
		c-2.457-4.143-5.854-7.935-10.695-11.93c-2.045-1.817-5.633-4.142-9.371-6.066c-2.568-1.322-7.455-3.593-11.334-3.953
		c-1.948-0.175-3.777-0.355-5.547-0.527c-5.096-0.499-9.499-0.93-13.51-0.93c-7.76,0-13.435,1.667-19.581,5.752
		c-8.1,4.478-14.263,9.247-18.84,14.58c-2.521,2.939-4.592,6.107-6.152,9.417c-1.641,3.48-2.777,7.243-3.379,11.184l-0.012,0.066
		l-0.001,0.066c-0.073,6.652-1.867,11.225-3.603,15.649c-3.36,8.571-6.264,15.973,6.01,33.985c2.017,5.207,3.66,7.188,6.697,8.064
		c4.486,2.07,7.401,4.521,10.22,6.891c2.501,2.104,4.866,4.094,8.059,5.564c3.563,1.648,7.651,2.416,12.864,2.416
		c1.323,0,2.741-0.053,4.215-0.154c2.292,0.135,4.661,1.312,6.574,2.262c1.114,0.555,2.078,1.033,2.857,1.219
		c1.003,0.238,2.104,0.361,3.273,0.361c2.722,0,5.823-0.641,9.225-1.898c3.448-1.273,7.118-3.156,10.905-5.592l0.092-0.057
		l0.074-0.074c3.682-3.752,7.391-5.482,11.32-7.312c3.852-1.797,7.832-3.65,12.117-7.502l0.068-0.062l0.053-0.072
		c1.008-1.33,3.766-9.842,4.689-14.457c0.533-2.666,1.342-5.35,2.199-8.191C4528.939,208.414,4531.51,199.883,4526.85,192.015z
		 M4504.092,205.238l0.844,0.266l0.471,0.268l0.186,0.836l-1.143,1.461l-1.006,1.586l-1.166-0.311l-0.322-0.918
		c0.328-0.438,0.65-0.887,0.955-1.34C4503.322,206.484,4503.717,205.863,4504.092,205.238z M4501.84,231.703l0.982-0.188
		c0.232,0.369,0.463,0.738,0.691,1.105c0.584,0.943,1.154,1.871,1.697,2.764l0.426,1.512l-0.955,0.734l-0.758-0.49l-1.559-2.164
		l-1.193-1.98l-0.141-0.885L4501.84,231.703z M4501.191,173.89l0.43-1.168l0.717-0.182l1.105,0.091l0.035,0.473l-0.6,1.198
		l-0.164,1.545l-0.98,0.042l-0.811-0.633L4501.191,173.89z M4495.4,166.915l2.143-2.512l3.486-2.754l0.734,0.543l-0.389,1.059
		c-1.062,0.981-2.105,2.01-3.098,3.056c-0.576,0.605-1.143,1.229-1.693,1.858L4495.4,166.915z M4498.066,194.351l-0.637,5.318
		l-1.988-0.043c0.07-0.959,0.17-1.924,0.283-2.874c0.148-1.219,0.336-2.453,0.562-3.675l1.428,0.131L4498.066,194.351z
		 M4510.465,195.068v0.927c-0.572,0.22-1.143,0.429-1.703,0.621c-0.805,0.28-1.637,0.545-2.477,0.791l-0.527-1.453l0.281-0.42
		l1.404-0.388l1.176-0.669l1.293,0.154L4510.465,195.068z M4514.539,186.09l-0.756-0.493l-1.561-2.16l-1.189-1.979l-0.141-0.888
		l0.807-0.406l0.984-0.187c0.23,0.369,0.461,0.737,0.689,1.106c0.568,0.917,1.143,1.848,1.699,2.762l0.424,1.511L4514.539,186.09z
		 M4513.336,218.642l0.848,0.357l0.639,1.119l-0.617,0.676l-2.42,1.375l-1.408,1.014l-1.041-0.562l-0.451-0.896
		c0.336-0.223,0.67-0.447,1.004-0.668c0.553-0.367,1.146-0.764,1.73-1.17C4512.201,219.476,4512.777,219.058,4513.336,218.642z
		 M4519.412,209.712l-0.344,1.162l-1.408,0.043l-0.154-1.219l-1.051-2.75l-0.387-2.152l0.561-0.328l0.932-0.105l0.785,0.176
		l0.287,2.436L4519.412,209.712z M4434.642,203.515l-0.469-0.754l0.145-1.279l2.489-0.211l3.066,0.371l-0.091,1.674l-1.268,0.143
		L4434.642,203.515z M4433.977,231.144c0.011-0.326,0.027-0.668,0.046-1.02l0.781-0.086l0.867-0.043l0.098,1.033l-0.062,3.691
		l0.518,2.514l-0.722,0.471l-1.016-0.088l-0.45-2.436C4433.952,233.845,4433.932,232.488,4433.977,231.144z M4436.25,218.078
		l-2.255,2.193l-1.245-0.424l-0.444-0.885l1.542-1.148l1.24-1.352l0.931-0.824l0.729-0.938l1.028,0.484l0.312,0.77L4436.25,218.078z
		 M4434.32,188.421l-0.722,0.47l-1.018-0.087l-0.446-2.437c-0.083-1.334-0.103-2.693-0.059-4.036
		c0.008-0.344,0.026-0.687,0.044-1.019l0.782-0.087l0.869-0.044l0.095,1.035l-0.062,3.692L4434.32,188.421z M4436.025,171.823
		l1.885-3.627l1.433-1.517l0.689,0.244l0.53,0.96l-1.815,2.667l-1.094,2.398l-1.199-0.087L4436.025,171.823z M4442.549,190.793
		l-1.243-0.423l-0.444-0.886l1.539-1.148l1.24-1.352l0.933-0.824l0.729-0.937l1.025,0.486l0.316,0.768l-1.839,2.124
		L4442.549,190.793z M4441.255,230.308c0.53-0.061,1.069-0.111,1.607-0.154c0.766-0.059,1.541-0.094,2.306-0.111l0.484,1.057
		l-0.163,0.529l-2.435,0.484h-1.835l-0.33-1.068L4441.255,230.308z M4449.504,212.607l-0.273,2.498l-0.752,2.471l-1.218,0.576
		l-0.933-0.486v-0.811l0.798-2.154l0.057-1.615l0.841-0.795L4449.504,212.607z M4488.812,179.198l0.453-0.685h0.08l2.582-0.316
		l0.273,1.625l-1.248,0.475h-1.861L4488.812,179.198z M4467.805,249.677c0.071-0.955,0.166-1.92,0.283-2.875
		c0.148-1.223,0.335-2.457,0.562-3.674l1.428,0.131l0.35,1.145l-0.634,5.318L4467.805,249.677z M4467.107,213.791
		c-0.621-1.469-2.38-3.621-3.749-5.166c-1.239-1.404-3.327-2.264-4.577-2.777c-0.296-0.123-0.662-0.273-0.771-0.34
		c-0.454-0.355-0.809-0.67-1.15-0.971c-0.669-0.588-1.247-1.098-2.155-1.557c-0.702-0.354-1.369-1.094-1.983-2.202
		c-0.321-0.582-0.412-1.235-0.509-1.927c-0.035-0.253-0.073-0.515-0.121-0.771c-0.171-0.912,0.075-1.49,0.487-2.448
		c0.213-0.495,0.453-1.057,0.666-1.752c0.233-0.769,0.943-1.492,2.165-2.209c0.714-0.418,1.709-0.672,2.876-0.733
		c0.14-0.009,0.283-0.017,0.429-0.024c0.578-0.035,1.231-0.072,1.867-0.072c0.878,0,1.567,0.072,2.099,0.222
		c1.383,0.388,2.597,1.263,3.713,2.676c0.453,0.571,0.908,1.246,1.318,1.95c0.533,0.912,0.934,1.785,1.107,2.39
		c0.094,0.33,0.34,1.205,1.266,1.205c0.661,0,1.243-0.454,3.165-1.958c1.045-0.819,1.811-1.509,2.4-2.169
		c0.567-0.637,1.689-0.814,2.681-0.97c0.389-0.062,0.759-0.119,1.103-0.204l0.094-0.023c0.889-0.217,1.807-0.442,2.564-0.442
		c0.252,0,0.479,0.027,0.666,0.078c0.742,0.205,1.564,0.775,2.373,1.649c0.648,0.698,1.036,1.77,1.219,3.373
		c0.168,1.432-0.215,2.868-1.08,4.042c-0.716,0.977-1.985,1.75-3.996,2.438c-0.592,0.203-1.058,0.518-1.504,0.82
		c-0.469,0.312-0.947,0.635-1.633,0.883c-1.637,0.592-3.112,1.74-4.385,3.41c-0.485,0.635-1.162,1.137-1.877,1.67
		c-0.721,0.533-1.467,1.086-2.025,1.805c-0.414,0.531-1.031,1.422-1.579,2.207c-0.079,0.117-0.164,0.238-0.25,0.361
		C4467.752,215.474,4467.425,214.539,4467.107,213.791z M4448.886,246.746l1.092,0.611l2.485,1.883l3.02,0.992l-0.097,1.297
		l-0.537,0.637l-2.106-0.789l-4.403-2.766l-0.095-0.908L4448.886,246.746z M4458.553,180.326l0.091-1.908l3.391,0.526l3.032,1.084
		v1.256l-0.457,0.594l-0.701-0.353l-2.786-0.964l-1.988-0.117L4458.553,180.326z M4454.609,157.478l-1.268,0.144l-3.872,0.056
		l-0.471-0.755l0.146-1.28l2.488-0.209l3.07,0.37L4454.609,157.478z M4450.894,168.452c0.757-0.058,1.531-0.095,2.305-0.112
		l0.483,1.055l-0.16,0.532l-2.436,0.484h-1.836l-0.329-1.069l0.362-0.735C4449.832,168.544,4450.372,168.492,4450.894,168.452z
		 M4455.229,227.402l0.093-1.908l3.39,0.527l3.03,1.084v1.258l-0.458,0.594l-0.698-0.354l-2.785-0.963l-1.989-0.117
		L4455.229,227.402z M4455.035,240.947l-0.45-0.9c0.333-0.223,0.669-0.445,1.003-0.666c0.586-0.391,1.158-0.773,1.729-1.17
		c0.584-0.408,1.159-0.824,1.714-1.244l0.848,0.357l0.642,1.119l-0.618,0.674l-2.419,1.377l-1.41,1.014L4455.035,240.947z
		 M4473.247,157.6l-1.41,0.044l-0.154-1.221l-1.051-2.749l-0.387-2.154l0.56-0.328l0.932-0.104l0.785,0.175l0.284,2.434l0.784,2.739
		L4473.247,157.6z M4481.975,182.639l-0.533,0.635l-2.109-0.789l-4.4-2.762l-0.094-0.911l0.641-0.958l1.09,0.611l2.483,1.884
		l3.021,0.992L4481.975,182.639z M4475.883,169.915l-1.008,1.586l-1.166-0.31l-0.321-0.918c0.327-0.438,0.647-0.889,0.956-1.34
		c0.404-0.6,0.803-1.221,1.178-1.85l0.846,0.267l0.471,0.268l0.186,0.836L4475.883,169.915z M4482.845,250.046l1.405-0.385
		l1.176-0.672l1.293,0.154l0.553,0.439v0.926c-0.549,0.211-1.121,0.42-1.698,0.621c-0.825,0.285-1.659,0.549-2.481,0.789
		l-0.529-1.449L4482.845,250.046z M4477.053,220.632h0.081l2.579-0.316l0.279,1.625l-1.252,0.475h-1.861l-0.275-1.098
		L4477.053,220.632z M4478.009,236.021l3.486-2.754l0.735,0.543l-0.389,1.057c-1.061,0.98-2.103,2.008-3.098,3.057
		c-0.58,0.613-1.149,1.236-1.695,1.857l-1.184-1.25L4478.009,236.021z M4488.057,157.9l-1.377-0.625l-2.563-0.648v-1.246
		l0.557-0.834c0.509,0.18,1.016,0.349,1.507,0.506c0.727,0.231,1.471,0.45,2.215,0.651l0.203,1.684L4488.057,157.9z
		 M4459.063,162.904v-0.811l0.796-2.154l0.06-1.616l0.84-0.795l1.481,0.317l-0.274,2.499l-0.752,2.468l-1.218,0.577
		L4459.063,162.904z M4490.725,219.562l0.557-0.836c0.504,0.178,1.01,0.35,1.508,0.508c0.727,0.232,1.469,0.449,2.211,0.65
		l0.205,1.686l-0.537,0.512l-1.379-0.627l-2.564-0.646V219.562z M4490.807,239.062l0.432-1.168l0.717-0.184l1.107,0.092l0.033,0.475
		l-0.602,1.199l-0.164,1.543l-0.979,0.041l-0.811-0.631L4490.807,239.062z M4426.78,211.738l-1.814,2.666l-1.093,2.398l-1.201-0.086
		l-0.427-1.037l1.883-3.629l1.435-1.516l0.688,0.244L4426.78,211.738z"/>
</g>
</svg>
